# xmcd
#
# Track frame offsets:
#	150
#	21061
#	38610
#	66045
#	85059
#	105175
#	123903
#	142206
#	162184
#	182270
#	202405
#	224523
#
# Disc length: 3295 seconds
#
# Revision: 0
# Processed by: cddbd v1.5.2PL0 Copyright (c) Steve Scherf et al.
# Submitted via: EasyCDDAExtractor 10.2.0.1
#
DISCID=a00cdd0c
DTITLE=Celine Dion - S'il Suffisait D'aimer
DYEAR=1900
DGENRE=
TTITLE0=Je crois toi
TTITLE1=Zora sourit
TTITLE2=On ne change pas
TTITLE3=Je chanterai
TTITLE4=Terre
TTITLE5=En attendant ses pas
TTITLE6=Pappilon
TTITLE7=L'abandon
TTITLE8=Dans un autre monde
TTITLE9=Sur le même bateau
TTITLE10=Tous les blues sont écrits pour toi
TTITLE11=S'il suffisait d'aimer
EXTD=
EXTT0=
EXTT1=
EXTT2=
EXTT3=
EXTT4=
EXTT5=
EXTT6=
EXTT7=
EXTT8=
EXTT9=
EXTT10=
EXTT11=
PLAYORDER=
